<?xml version="1.0" standalone="no"?>
<!DOCTYPE svg PUBLIC "-//W3C//DTD SVG 20010904//EN"
 "http://www.w3.org/TR/2001/REC-SVG-20010904/DTD/svg10.dtd">
<svg version="1.0" xmlns="http://www.w3.org/2000/svg"
 width="806.000000pt" height="806.000000pt" viewBox="0 0 806.000000 806.000000"
 preserveAspectRatio="xMidYMid meet">
<metadata>
Created by potrace 1.11, written by Peter Selinger 2001-2013
</metadata>
<g transform="translate(0.000000,806.000000) scale(0.100000,-0.100000)"
fill="#000000" stroke="none">
<path d="M2868 8043 c-90 -26 -148 -130 -126 -226 10 -44 62 -147 183 -361
l25 -44 -83 -58 c-398 -277 -711 -641 -915 -1066 -50 -104 -100 -220 -107
-248 -2 -8 -13 -42 -25 -75 -39 -111 -90 -311 -104 -405 -2 -19 -8 -57 -12
-85 -3 -27 -8 -58 -10 -68 -21 -118 -21 -504 0 -637 2 -14 7 -47 11 -75 44
-332 182 -718 370 -1026 352 -580 924 -1017 1577 -1204 66 -19 132 -37 146
-40 15 -3 38 -7 52 -10 14 -4 66 -13 115 -21 50 -8 101 -17 114 -19 135 -23
543 -24 667 -1 10 2 44 7 74 11 30 4 97 16 149 27 51 11 101 21 110 23 84 18
324 99 420 142 18 8 37 11 41 6 4 -4 27 -44 50 -88 24 -44 55 -102 70 -130 15
-27 40 -74 55 -103 35 -68 85 -109 149 -122 123 -25 230 63 230 190 -1 44 -8
68 -36 120 -19 36 -106 198 -193 360 -87 162 -160 297 -161 299 -2 2 -91 -39
-196 -92 -106 -53 -236 -112 -288 -131 -85 -31 -293 -88 -360 -99 -14 -3 -45
-8 -70 -12 -25 -4 -54 -9 -65 -11 -113 -22 -485 -22 -620 1 -129 21 -172 30
-255 51 -767 189 -1394 760 -1651 1503 -42 122 -73 238 -95 361 -4 19 -8 44
-10 55 -20 108 -26 454 -11 600 5 44 10 82 12 85 2 3 6 27 9 54 10 70 69 295
106 401 44 127 177 392 255 509 181 271 421 511 678 679 115 75 125 81 224
133 48 26 92 50 96 54 8 7 -30 86 -122 255 -15 28 -54 100 -86 160 -32 61 -80
149 -107 198 -26 48 -48 91 -48 95 0 13 -52 58 -85 75 -45 22 -94 26 -147 10z"/>
<path d="M4278 7035 c-2 -1 -30 -5 -63 -9 -426 -43 -826 -228 -1135 -523 -259
-247 -439 -547 -534 -888 -52 -187 -70 -320 -70 -530 0 -248 34 -443 120 -671
220 -591 713 -1036 1326 -1198 185 -49 284 -61 503 -61 282 0 505 46 765 158
136 59 347 183 416 244 10 10 41 35 67 57 182 147 385 410 492 641 36 78 54
121 106 265 11 31 56 222 63 270 13 81 20 193 20 305 1 113 -10 280 -18 294
-2 3 -7 26 -10 51 -16 119 -89 347 -130 408 -60 88 -157 136 -271 134 -62 -1
-117 -24 -315 -133 -41 -22 -109 -59 -150 -80 -41 -22 -82 -44 -90 -49 -8 -5
-108 -59 -222 -120 -114 -60 -226 -120 -250 -133 -24 -13 -83 -45 -133 -71
-49 -27 -106 -58 -125 -69 -132 -80 -185 -261 -117 -399 50 -102 144 -165 257
-173 80 -5 137 13 268 84 119 64 233 126 332 179 36 19 88 47 115 62 163 90
228 121 234 111 4 -6 6 -50 5 -98 -3 -142 -15 -231 -46 -343 -102 -373 -357
-679 -701 -844 -197 -94 -363 -130 -587 -129 -659 3 -1215 503 -1296 1165 -12
100 -6 284 12 372 2 12 7 37 10 56 12 78 93 293 137 365 156 256 330 422 565
539 110 55 265 107 357 121 162 23 247 25 388 11 105 -11 264 -55 365 -102 29
-13 54 -24 56 -24 3 0 35 -18 73 -39 75 -43 114 -54 188 -53 220 2 366 241
270 439 -37 76 -87 122 -191 179 -265 145 -566 223 -881 229 -94 2 -173 2
-175 0z"/>
<path d="M1794 1512 c-19 -18 -20 -32 -19 -275 0 -166 -3 -257 -10 -257 -5 0
-32 7 -60 16 -27 9 -95 18 -150 20 -168 6 -270 -30 -369 -128 -125 -124 -173
-286 -141 -473 33 -189 174 -330 370 -369 17 -4 41 -9 55 -11 14 -3 103 -6
198 -7 145 -1 175 1 188 14 14 14 16 91 15 679 0 365 0 691 0 725 -1 55 -3 62
-26 72 -32 15 -28 15 -51 -6z m-124 -592 c30 -7 66 -18 80 -25 l25 -13 -1
-373 c-1 -206 -2 -380 -3 -386 -2 -18 -226 -17 -312 1 -212 45 -324 184 -321
396 4 209 111 358 292 405 56 15 167 12 240 -5z"/>
<path d="M4682 1519 c-232 -28 -443 -167 -562 -370 -40 -67 -77 -156 -86 -206
-18 -94 -22 -138 -18 -222 11 -291 160 -527 404 -640 166 -77 376 -96 555 -50
52 13 125 40 150 54 11 7 41 24 66 38 l47 27 -2 -48 c-1 -26 2 -57 7 -69 12
-28 54 -36 77 -13 16 16 17 46 16 354 -1 288 -3 338 -16 346 -9 6 -139 10
-302 10 -251 0 -289 -2 -303 -16 -21 -21 -16 -56 11 -69 13 -6 115 -10 266
-10 l245 0 0 -188 0 -188 -44 -30 c-59 -41 -155 -85 -228 -104 -83 -23 -260
-26 -343 -8 -245 55 -427 239 -481 485 -22 101 -20 244 3 331 101 372 487 580
850 461 28 -9 86 -35 128 -57 76 -40 78 -40 98 -22 23 21 26 53 8 78 -15 18
-112 68 -173 87 -22 7 -40 12 -40 11 0 -1 -12 2 -26 7 -57 22 -212 32 -307 21z"/>
<path d="M5679 1511 l-22 -18 0 -725 c0 -399 3 -731 8 -737 18 -31 93 -28 96
3 1 6 2 335 3 730 1 649 0 721 -15 739 -21 27 -44 29 -70 8z"/>
<path d="M6427 1519 c-259 -28 -398 -159 -399 -377 0 -149 84 -255 260 -327
33 -13 129 -45 214 -71 236 -71 324 -121 374 -214 27 -51 26 -179 -2 -241 -62
-134 -210 -200 -418 -186 -108 8 -194 36 -298 97 -40 24 -81 43 -91 42 -44 -3
-61 -48 -32 -88 30 -44 213 -117 350 -140 46 -8 208 -8 245 -1 83 16 189 56
216 82 6 5 21 17 34 25 37 25 87 102 109 167 28 83 28 193 1 267 -52 138 -172
214 -468 295 -312 86 -411 179 -378 358 21 112 98 180 237 209 139 29 297 12
431 -47 75 -33 100 -36 122 -13 45 44 -7 90 -149 133 -109 32 -236 43 -358 30z"/>
<path d="M3395 1204 c-17 -17 -18 -26 -16 -131 l1 -73 -65 0 c-49 0 -66 -4
-73 -16 -20 -36 12 -70 59 -64 8 2 28 2 45 1 l31 -1 0 -333 c1 -352 5 -388 49
-465 68 -117 256 -151 422 -77 60 27 97 69 86 99 -10 26 -36 22 -110 -15 -113
-56 -222 -50 -289 17 -54 53 -59 93 -60 451 l-1 323 51 1 c327 4 317 3 331 24
29 44 9 50 -193 55 l-188 5 0 92 c0 52 -5 97 -11 103 -18 18 -53 20 -69 4z"/>
<path d="M2479 1001 c-310 -86 -459 -436 -310 -729 127 -249 449 -340 712
-201 174 93 276 302 248 507 -13 91 -17 104 -49 167 -64 130 -191 231 -327
260 -74 17 -209 15 -274 -4z m266 -82 c152 -47 256 -167 284 -327 31 -175 -44
-356 -185 -443 -110 -67 -278 -77 -394 -23 -36 17 -82 45 -102 63 -143 125
-180 370 -83 543 92 165 296 244 480 187z"/>
</g>
</svg>
